<?xml version="1.0" standalone="no"?>
<!DOCTYPE svg PUBLIC "-//W3C//DTD SVG 20010904//EN"
 "http://www.w3.org/TR/2001/REC-SVG-20010904/DTD/svg10.dtd">
<svg version="1.0" xmlns="http://www.w3.org/2000/svg"
 width="952.000000pt" height="952.000000pt" viewBox="0 0 952.000000 952.000000"
 preserveAspectRatio="xMidYMid meet">
<metadata>
Created by potrace 1.14, written by Peter Selinger 2001-2017
</metadata>
<g transform="translate(0.000000,952.000000) scale(0.100000,-0.100000)"
fill="#000000" stroke="none">
<path d="M1539 9516 c-2 -2 -29 -6 -59 -10 -109 -12 -153 -21 -275 -58 -38
-12 -74 -25 -79 -30 -6 -4 -16 -8 -24 -8 -8 0 -44 -14 -80 -32 -37 -17 -69
-32 -72 -32 -6 -1 -181 -106 -195 -117 -5 -5 -37 -30 -70 -56 -121 -94 -283
-274 -363 -403 -21 -35 -106 -205 -135 -270 -17 -40 -50 -149 -50 -167 0 -7
-3 -13 -7 -13 -4 0 -6 -10 -6 -22 1 -13 -1 -30 -5 -38 -8 -16 -15 -53 -26
-140 -10 -68 -11 -6658 -1 -6720 3 -25 14 -81 23 -125 9 -44 18 -87 20 -95 1
-8 5 -22 8 -30 3 -8 16 -44 28 -80 155 -454 535 -831 994 -985 70 -24 96 -31
140 -39 6 -1 16 -5 23 -9 6 -5 12 -6 12 -4 0 2 21 0 48 -5 26 -5 72 -12 102
-16 74 -9 6480 -9 6550 0 58 8 85 13 135 25 17 4 37 7 45 8 26 2 165 46 175
56 5 5 17 9 27 9 43 0 330 165 428 246 67 56 191 183 240 246 27 34 54 68 60
75 5 7 10 16 10 22 0 5 4 11 8 13 11 5 75 111 75 126 0 6 3 12 7 12 6 0 40 62
46 85 2 6 19 48 38 95 19 47 37 97 40 112 2 15 8 33 12 39 3 6 8 23 10 38 3
32 13 82 19 98 2 6 8 38 12 70 10 75 11 6670 0 6743 -12 83 -12 84 -20 98 -5
6 -5 16 -2 22 3 5 2 18 -4 27 -5 10 -11 32 -14 50 -3 17 -8 37 -12 43 -3 5 -9
23 -11 37 -17 92 -146 343 -243 473 -49 65 -188 213 -262 276 -39 34 -199 144
-199 137 0 -3 -8 1 -18 9 -38 34 -294 143 -382 163 -47 11 -161 35 -195 42
-40 7 -6518 17 -6526 9z"/>
</g>
</svg>
