<svg width="275" height="136" viewBox="0 0 275 136" fill="none" xmlns="http://www.w3.org/2000/svg">
<path d="M1.904 27V7.12H6.496V22.968H16.128V27H1.904ZM26.6354 27.168C25.1421 27.168 23.7888 26.888 22.5754 26.328C21.3808 25.7493 20.3448 24.984 19.4674 24.032C18.6088 23.0613 17.9461 21.9787 17.4794 20.784C17.0128 19.5707 16.7794 18.32 16.7794 17.032C16.7794 15.7067 17.0221 14.4467 17.5074 13.252C18.0114 12.0573 18.7021 10.9933 19.5794 10.06C20.4754 9.108 21.5301 8.36133 22.7434 7.82C23.9568 7.27867 25.2821 7.008 26.7194 7.008C28.1941 7.008 29.5288 7.29733 30.7234 7.876C31.9368 8.436 32.9728 9.20133 33.8314 10.172C34.7088 11.1427 35.3808 12.2347 35.8474 13.448C36.3141 14.6427 36.5474 15.8653 36.5474 17.116C36.5474 18.4413 36.3048 19.7013 35.8194 20.896C35.3341 22.0907 34.6434 23.164 33.7474 24.116C32.8514 25.0493 31.7968 25.796 30.5834 26.356C29.3888 26.8973 28.0728 27.168 26.6354 27.168ZM21.4554 17.088C21.4554 17.8533 21.5674 18.6 21.7914 19.328C22.0154 20.0373 22.3421 20.672 22.7714 21.232C23.2194 21.792 23.7701 22.24 24.4234 22.576C25.0768 22.912 25.8234 23.08 26.6634 23.08C27.5408 23.08 28.3061 22.912 28.9594 22.576C29.6128 22.2213 30.1541 21.7547 30.5834 21.176C31.0128 20.5973 31.3301 19.9533 31.5354 19.244C31.7594 18.516 31.8714 17.7787 31.8714 17.032C31.8714 16.2667 31.7594 15.5293 31.5354 14.82C31.3114 14.1107 30.9754 13.476 30.5274 12.916C30.0794 12.3373 29.5288 11.8893 28.8754 11.572C28.2221 11.2547 27.4848 11.096 26.6634 11.096C25.7861 11.096 25.0208 11.264 24.3674 11.6C23.7328 11.936 23.1914 12.3933 22.7434 12.972C22.3141 13.532 21.9874 14.176 21.7634 14.904C21.5581 15.6133 21.4554 16.3413 21.4554 17.088ZM39.2009 27V7.12H48.1609C49.0942 7.12 49.9529 7.316 50.7369 7.708C51.5395 8.08133 52.2302 8.59467 52.8089 9.248C53.3875 9.88267 53.8355 10.6013 54.1529 11.404C54.4889 12.2067 54.6569 13.0187 54.6569 13.84C54.6569 14.6613 54.5262 15.4453 54.2649 16.192C54.0035 16.92 53.6302 17.5827 53.1449 18.18C52.6595 18.7587 52.0809 19.2347 51.4089 19.608L55.7769 27H50.7089L46.9009 20.588H43.7929V27H39.2009ZM43.7929 16.584H47.9929C48.3662 16.584 48.6929 16.472 48.9729 16.248C49.2715 16.0053 49.5142 15.6787 49.7009 15.268C49.8875 14.8573 49.9809 14.3813 49.9809 13.84C49.9809 13.2987 49.8689 12.832 49.6449 12.44C49.4395 12.0293 49.1782 11.712 48.8609 11.488C48.5435 11.264 48.2075 11.152 47.8529 11.152H43.7929V16.584ZM71.9307 22.968V27H57.9587V7.12H71.6787V11.152H62.5507V15.016H70.3907V18.74H62.5507V22.968H71.9307ZM90.4004 27V15.156L86.1164 23.78H83.5964L79.3124 15.156V27H74.7204V7.12H79.7044L84.8564 17.508L90.0364 7.12H94.9924V27H90.4004ZM98.8103 27V7.12H103.402V27H98.8103ZM107.205 27V7.12H115.689C116.641 7.12 117.509 7.316 118.293 7.708C119.095 8.08133 119.786 8.59467 120.365 9.248C120.943 9.88267 121.391 10.6013 121.709 11.404C122.026 12.2067 122.185 13.028 122.185 13.868C122.185 15.0067 121.914 16.0893 121.373 17.116C120.85 18.1427 120.113 18.9827 119.161 19.636C118.227 20.2707 117.117 20.588 115.829 20.588H111.797V27H107.205ZM111.797 16.584H115.549C115.903 16.584 116.23 16.4813 116.529 16.276C116.827 16.0707 117.07 15.7627 117.257 15.352C117.443 14.9413 117.537 14.4373 117.537 13.84C117.537 13.224 117.425 12.72 117.201 12.328C116.995 11.9173 116.725 11.6187 116.389 11.432C116.071 11.2453 115.735 11.152 115.381 11.152H111.797V16.584ZM136.578 12.944C136.522 12.8507 136.326 12.7107 135.99 12.524C135.654 12.3187 135.234 12.104 134.73 11.88C134.226 11.656 133.675 11.46 133.078 11.292C132.481 11.124 131.883 11.04 131.286 11.04C130.502 11.04 129.895 11.18 129.466 11.46C129.037 11.7213 128.822 12.132 128.822 12.692C128.822 13.14 128.981 13.4947 129.298 13.756C129.634 14.0173 130.11 14.2507 130.726 14.456C131.342 14.6427 132.098 14.8667 132.994 15.128C134.263 15.464 135.365 15.8747 136.298 16.36C137.231 16.8267 137.941 17.4333 138.426 18.18C138.93 18.9267 139.182 19.916 139.182 21.148C139.182 22.268 138.977 23.22 138.566 24.004C138.155 24.7693 137.595 25.3947 136.886 25.88C136.195 26.3467 135.402 26.692 134.506 26.916C133.61 27.1213 132.686 27.224 131.734 27.224C130.763 27.224 129.765 27.1307 128.738 26.944C127.73 26.7387 126.759 26.4587 125.826 26.104C124.893 25.7307 124.034 25.2827 123.25 24.76L125.266 20.756C125.341 20.8493 125.583 21.0267 125.994 21.288C126.405 21.5307 126.909 21.792 127.506 22.072C128.122 22.3333 128.803 22.5667 129.55 22.772C130.297 22.9773 131.053 23.08 131.818 23.08C132.639 23.08 133.246 22.9493 133.638 22.688C134.049 22.4267 134.254 22.0627 134.254 21.596C134.254 21.092 134.039 20.7 133.61 20.42C133.199 20.14 132.63 19.888 131.902 19.664C131.193 19.44 130.371 19.188 129.438 18.908C128.225 18.5347 127.217 18.1147 126.414 17.648C125.63 17.1813 125.042 16.612 124.65 15.94C124.277 15.268 124.09 14.428 124.09 13.42C124.09 12.02 124.417 10.844 125.07 9.892C125.742 8.92133 126.638 8.19333 127.758 7.708C128.878 7.204 130.101 6.952 131.426 6.952C132.359 6.952 133.255 7.064 134.114 7.288C134.991 7.512 135.803 7.792 136.55 8.128C137.315 8.464 137.997 8.8 138.594 9.136L136.578 12.944ZM150.417 27.168C148.83 27.168 147.477 26.9067 146.357 26.384C145.237 25.8427 144.322 25.1147 143.613 24.2C142.922 23.2667 142.409 22.212 142.073 21.036C141.755 19.8413 141.597 18.5907 141.597 17.284V7.12H146.189V17.284C146.189 18.0307 146.263 18.7587 146.413 19.468C146.562 20.1587 146.805 20.7747 147.141 21.316C147.477 21.8573 147.906 22.2867 148.429 22.604C148.97 22.9213 149.633 23.08 150.417 23.08C151.219 23.08 151.891 22.9213 152.433 22.604C152.974 22.268 153.403 21.8293 153.721 21.288C154.038 20.728 154.271 20.1027 154.421 19.412C154.57 18.7213 154.645 18.012 154.645 17.284V7.12H159.237V17.284C159.237 18.6653 159.059 19.9533 158.705 21.148C158.369 22.3427 157.846 23.3973 157.137 24.312C156.427 25.208 155.513 25.908 154.393 26.412C153.291 26.916 151.966 27.168 150.417 27.168ZM178.475 27V15.156L174.191 23.78H171.671L167.387 15.156V27H162.795V7.12H167.779L172.931 17.508L178.111 7.12H183.067V27H178.475ZM186.492 27V22.436H190.16V27H186.492Z" fill="white"/>
<path d="M198.176 15.632V27H193.584V7.12H197.224L206.436 18.824V7.12H211.028V27H207.276L198.176 15.632ZM228.802 22.968V27H214.83V7.12H228.55V11.152H219.422V15.016H227.262V18.74H219.422V22.968H228.802ZM246.74 11.152H240.692V27H236.1V11.152H230.024V7.12H246.74V11.152Z" fill="#42A9ED"/>
<path d="M33.9286 59.9285C33.9286 64.8906 29.8906 68.9285 24.9286 68.9285C19.9665 68.9285 15.9286 64.8906 15.9286 59.9285C15.9286 54.9664 19.9665 50.9285 24.9286 50.9285C29.8906 50.9285 33.9286 54.9664 33.9286 59.9285ZM44.2143 76.6428C44.2143 75.9598 43.933 75.2968 43.471 74.8348L36.5803 67.9441C38.2076 65.5937 39.0714 62.7812 39.0714 59.9285C39.0714 52.1138 32.7433 45.7856 24.9286 45.7856C17.1138 45.7856 10.7857 52.1138 10.7857 59.9285C10.7857 67.7432 17.1138 74.0714 24.9286 74.0714C27.7812 74.0714 30.5937 73.2075 32.9442 71.5803L39.8348 78.4508C40.2969 78.933 40.9598 79.2142 41.6429 79.2142C43.0491 79.2142 44.2143 78.049 44.2143 76.6428Z" fill="white"/>
<path d="M92.7857 70.2143C92.7857 71.6205 91.6205 72.7857 90.2143 72.7857C88.808 72.7857 87.6429 71.6205 87.6429 70.2143C87.6429 68.808 88.808 67.6428 90.2143 67.6428C91.6205 67.6428 92.7857 68.808 92.7857 70.2143ZM77.3571 54.7857C77.3571 56.1919 76.192 57.3571 74.7857 57.3571C73.3795 57.3571 72.2143 56.1919 72.2143 54.7857C72.2143 53.3794 73.3795 52.2143 74.7857 52.2143C76.192 52.2143 77.3571 53.3794 77.3571 54.7857ZM97.9286 70.2143C97.9286 65.9553 94.4732 62.5 90.2143 62.5C85.9554 62.5 82.5 65.9553 82.5 70.2143C82.5 74.4732 85.9554 77.9286 90.2143 77.9286C94.4732 77.9286 97.9286 74.4732 97.9286 70.2143ZM96 48.3571C96 47.654 95.4174 47.0714 94.7143 47.0714H91.5C91.0982 47.0714 90.7165 47.2723 90.4754 47.5937L69.2612 75.8794C69.1004 76.1004 69 76.3616 69 76.6428C69 77.346 69.5826 77.9286 70.2857 77.9286H73.5C73.9018 77.9286 74.2835 77.7277 74.5246 77.4062L95.7388 49.1205C95.8996 48.8995 96 48.6384 96 48.3571ZM82.5 54.7857C82.5 50.5268 79.0446 47.0714 74.7857 47.0714C70.5268 47.0714 67.0714 50.5268 67.0714 54.7857C67.0714 59.0446 70.5268 62.5 74.7857 62.5C79.0446 62.5 82.5 59.0446 82.5 54.7857Z" fill="white"/>
<path d="M133.993 64.1224V62.8367C133.993 62.4751 134.274 62.1938 134.636 62.1938H148.779C149.141 62.1938 149.422 62.4751 149.422 62.8367V64.1224C149.422 64.484 149.141 64.7652 148.779 64.7652H134.636C134.274 64.7652 133.993 64.484 133.993 64.1224Z" fill="white"/>
<path d="M134.636 67.3367H148.779C149.141 67.3367 149.422 67.6179 149.422 67.9795V69.2652C149.422 69.6268 149.141 69.9081 148.779 69.9081H134.636C134.274 69.9081 133.993 69.6268 133.993 69.2652V67.9795C133.993 67.6179 134.274 67.3367 134.636 67.3367Z" fill="white"/>
<path d="M134.636 72.4795H148.779C149.141 72.4795 149.422 72.7608 149.422 73.1224V74.4081C149.422 74.7697 149.141 75.0509 148.779 75.0509H134.636C134.274 75.0509 133.993 74.7697 133.993 74.4081V73.1224C133.993 72.7608 134.274 72.4795 134.636 72.4795Z" fill="white"/>
<path fill-rule="evenodd" clip-rule="evenodd" d="M126.279 56.0647C122.184 56.0647 118.864 52.7449 118.864 48.6497C118.864 44.5545 122.184 41.2347 126.279 41.2347C129.723 41.2347 132.619 43.5827 133.452 46.7652H146.207C147.272 46.7652 148.759 47.388 149.502 48.1313L155.77 54.3992C156.513 55.1425 157.136 56.6291 157.136 57.6938V80.8367C157.136 81.9014 156.272 82.7652 155.207 82.7652H128.207C127.143 82.7652 126.279 81.9014 126.279 80.8367L126.279 56.0647ZM128.85 55.6067C131.473 54.6371 133.397 52.2269 133.663 49.3367H144.279V57.6938C144.279 58.7585 145.143 59.6224 146.207 59.6224H154.565V80.1938H128.85V55.6067ZM147.674 49.9393C147.533 49.7987 147.192 49.6179 146.85 49.4974V57.0509H154.404C154.283 56.7094 154.103 56.3679 153.962 56.2273L147.674 49.9393ZM127.279 49.6498H131.279V47.6498H127.279V43.6498H125.279V47.6498H121.279V49.6498H125.279V53.6498H127.279V49.6498Z" fill="white"/>
<path d="M209.429 73.8572C209.429 74.1987 209.127 74.5001 208.786 74.5001H179.214C178.873 74.5001 178.571 74.1987 178.571 73.8572V58.4286C178.993 58.9108 179.455 59.3527 179.958 59.7545C182.83 61.9643 185.723 64.2143 188.516 66.5447C190.022 67.8103 191.891 69.3572 193.98 69.3572H194H194.02C196.109 69.3572 197.978 67.8103 199.484 66.5447C202.277 64.2143 205.17 61.9643 208.042 59.7545C208.545 59.3527 209.007 58.9108 209.429 58.4286V73.8572ZM209.429 52.7434C209.429 54.4509 207.781 56.6809 206.475 57.7054C203.783 59.8148 201.092 61.9442 198.42 64.0737C197.355 64.9376 195.426 66.7858 194.02 66.7858H194H193.98C192.574 66.7858 190.645 64.9376 189.58 64.0737C186.908 61.9442 184.217 59.8148 181.525 57.7054C179.717 56.2791 178.571 54.2902 178.571 52.0001C178.571 51.6585 178.873 51.3572 179.214 51.3572H208.786C209.549 51.3572 209.429 52.2411 209.429 52.7434ZM212 52.0001C212 50.2322 210.554 48.7858 208.786 48.7858H179.214C177.446 48.7858 176 50.2322 176 52.0001V73.8572C176 75.6251 177.446 77.0715 179.214 77.0715H208.786C210.554 77.0715 212 75.6251 212 73.8572V52.0001Z" fill="white"/>
<path d="M243.929 66.7858V64.8572H246.5V59.0715H246.46C246.138 59.5737 245.837 59.7947 245.355 60.2166L243.808 58.6094L246.781 55.8572H249.071V64.8572H251.643V66.7858H243.929ZM254.214 61.6429C254.214 57.9867 252.004 53.2858 247.786 53.2858C243.567 53.2858 241.357 57.9867 241.357 61.6429C241.357 65.2992 243.567 70.0001 247.786 70.0001C252.004 70.0001 254.214 65.2992 254.214 61.6429ZM264.5 66.7858C261.667 66.7858 259.357 69.096 259.357 71.9286H236.214C236.214 69.096 233.904 66.7858 231.071 66.7858V56.5001C233.904 56.5001 236.214 54.1898 236.214 51.3572H259.357C259.357 54.1898 261.667 56.5001 264.5 56.5001V66.7858ZM267.071 50.0715C267.071 49.3684 266.489 48.7858 265.786 48.7858H229.786C229.083 48.7858 228.5 49.3684 228.5 50.0715V73.2143C228.5 73.9175 229.083 74.5001 229.786 74.5001H265.786C266.489 74.5001 267.071 73.9175 267.071 73.2143V50.0715Z" fill="white"/>
<g clip-path="url(#clip0_17902_33)">
<g clip-path="url(#clip1_17902_33)">
<path d="M16.4119 103.456C16.472 103.844 16.3451 104.008 16.2168 104.008C16.0886 104.008 15.9029 103.85 15.6958 103.537C15.4887 103.225 15.4179 102.877 15.5181 102.699C15.5559 102.637 15.6168 102.591 15.6882 102.572C15.7596 102.553 15.836 102.56 15.9015 102.594C16.2422 102.718 16.3758 103.223 16.4119 103.456ZM14.5242 104.306C14.9343 104.641 15.0586 105.039 14.8422 105.319C14.7762 105.398 14.6922 105.46 14.5969 105.501C14.5015 105.543 14.3975 105.562 14.2931 105.557C14.0643 105.557 13.8425 105.48 13.6665 105.339C13.2952 105.025 13.1856 104.514 13.4288 104.225C13.4825 104.165 13.5495 104.119 13.6248 104.088C13.7 104.058 13.7815 104.044 13.8629 104.049C14.1077 104.057 14.3419 104.148 14.5242 104.306V104.306ZM13.8402 107.537C15.6023 107.537 17.514 108.121 19.6314 109.935C19.8425 110.116 20.1244 109.891 19.94 109.665C17.86 107.126 15.9323 106.641 14.0179 106.233C11.672 105.731 10.4644 104.453 9.61872 103.051C9.45173 102.772 9.37558 102.821 9.36089 103.181C9.34685 103.713 9.38847 104.246 9.48513 104.77V104.77C9.39028 104.77 9.29409 104.77 9.19924 104.77C7.99705 104.77 6.82185 104.425 5.82226 103.779C4.82267 103.133 4.04358 102.215 3.58352 101.14C3.12346 100.066 3.00308 98.8838 3.23762 97.7433C3.47216 96.6028 4.05107 95.5551 4.90115 94.7328C5.75124 93.9105 6.83431 93.3505 8.0134 93.1237C9.1925 92.8968 10.4147 93.0132 11.5254 93.4582C12.636 93.9033 13.5854 94.6569 14.2533 95.6238C14.9212 96.5907 15.2777 97.7275 15.2777 98.8904C15.2783 99.1188 15.2653 99.347 15.2389 99.574C14.5986 99.496 13.9514 99.4843 13.3085 99.5391C13.0774 99.5585 13.1108 99.6683 13.2845 99.6929C15.2883 100.043 16.675 101.244 16.9903 103.434C16.9914 103.445 16.9962 103.455 17.0038 103.464C17.0114 103.472 17.0216 103.478 17.0329 103.48C17.0441 103.483 17.0559 103.482 17.0665 103.477C17.077 103.473 17.0859 103.465 17.0918 103.456C18.1342 101.77 18.5706 99.7984 18.3329 97.8477C18.0952 95.8971 17.1968 94.0774 15.7778 92.6725C14.3588 91.2675 12.499 90.3564 10.4885 90.0811C8.47805 89.8058 6.4299 90.1819 4.66357 91.1508C2.89723 92.1196 1.51203 93.6266 0.724023 95.4368C-0.063981 97.247 -0.210478 99.2586 0.307383 101.158C0.825243 103.057 1.97834 104.737 3.58682 105.936C5.1953 107.135 7.16871 107.785 9.19924 107.785C10.5418 107.789 11.8791 107.535 13.8402 107.535V107.537Z" fill="#3E9CDC"/>
</g>
</g>
<path fill-rule="evenodd" clip-rule="evenodd" d="M23.2799 99.9307C23.2799 98.9466 23.3631 98.3221 25.4182 96.8009C27.1195 95.5414 32.5731 91.2374 32.5731 91.2374V98.4221H36.7203V108.763H24.5752C23.8628 108.763 23.2797 108.184 23.2797 107.478L23.2799 99.9308V99.9307Z" fill="#3E9CDC"/>
<path fill-rule="evenodd" clip-rule="evenodd" d="M32.5731 98.422V102.585L24.9522 107.734L34.5874 104.625V98.422H32.5731Z" fill="black" fill-opacity="0.2"/>
<path fill-rule="evenodd" clip-rule="evenodd" d="M29.0905 98.2068C29.5362 97.6802 30.187 97.4944 30.5444 97.7917C30.9018 98.0892 30.8304 98.7572 30.3847 99.2838C29.9393 99.8103 29.2882 99.996 28.9308 99.6986C28.5734 99.4012 28.645 98.7333 29.0905 98.2068V98.2068Z" fill="#231F20"/>
<g clip-path="url(#clip2_17902_33)">
<path d="M48.8408 90C50.2511 90 51.5928 90.3231 52.7969 90.9011C52.9857 90.9863 53.1758 91.0882 53.364 91.1903L52.5384 91.9216L51.3007 90.6463L49.168 92.5165L47.9122 91.1731L43.9905 94.6589L46.5013 97.3965L45.5211 98.2464L47.9982 100.984L47.018 101.834L50.5613 105.727L52.6585 103.823L54.4826 105.864C54.1211 106.136 53.7255 106.409 53.296 106.646C51.9886 107.377 50.4747 107.802 48.8582 107.802C43.8869 107.802 39.8456 103.807 39.8456 98.8931C39.828 94.0129 43.8701 90 48.8408 90ZM47.1893 98.3486L49.3394 96.4442L51.2662 98.5695L49.1157 100.474L47.1893 98.3486ZM48.7205 102.021L50.8531 100.1L52.7969 102.225L50.6467 104.13L48.7205 102.021ZM45.6594 94.7271L47.8089 92.8227L49.7352 94.948L47.5851 96.8524L45.6594 94.7271ZM49.5974 93.7066L51.1972 92.2784L52.6423 93.8598L51.0426 95.3048L49.5974 93.7066ZM52.4529 100.253L54.0521 98.8246L55.4972 100.422L53.8974 101.852L52.4529 100.253ZM53.8631 103.467L55.4629 102.038L56.9068 103.619L55.3077 105.064L53.8631 103.467ZM54.5168 96.1211L55.5831 95.1688L56.546 96.2234L55.4799 97.1753L54.5168 96.1211ZM53.1408 92.9755L54.2072 92.0065L55.1707 93.0775L54.1036 94.0297L53.1408 92.9755ZM55.8755 99.2669L56.9417 98.3147L57.9221 99.369L56.8389 100.321L55.8755 99.2669ZM51.0768 96.9034L52.6766 95.4751L54.1211 97.0561L52.522 98.4847L51.0768 96.9034Z" fill="#3E9CDC"/>
</g>
<path d="M76.4286 104.849C76.4286 104.991 76.303 105.117 76.1607 105.117H63.8393C63.697 105.117 63.5714 104.991 63.5714 104.849V98.4206C63.7472 98.6215 63.9397 98.8056 64.149 98.973C65.346 99.8938 66.5513 100.831 67.7148 101.802C68.3426 102.33 69.1211 102.974 69.9916 102.974H70H70.0084C70.8789 102.974 71.6574 102.33 72.2852 101.802C73.4487 100.831 74.654 99.8938 75.851 98.973C76.0603 98.8056 76.2528 98.6215 76.4286 98.4206V104.849ZM76.4286 96.0517C76.4286 96.7632 75.7422 97.6923 75.1981 98.1192C74.0765 98.9981 72.9548 99.8854 71.8415 100.773C71.3979 101.133 70.5943 101.903 70.0084 101.903H70H69.9916C69.4057 101.903 68.6021 101.133 68.1585 100.773C67.0452 99.8854 65.9235 98.9981 64.8019 98.1192C64.0485 97.5249 63.5714 96.6962 63.5714 95.742C63.5714 95.5997 63.697 95.4741 63.8393 95.4741H76.1607C76.4788 95.4741 76.4286 95.8424 76.4286 96.0517ZM77.5 95.742C77.5 95.0054 76.8973 94.4027 76.1607 94.4027H63.8393C63.1027 94.4027 62.5 95.0054 62.5 95.742V104.849C62.5 105.586 63.1027 106.188 63.8393 106.188H76.1607C76.8973 106.188 77.5 105.586 77.5 104.849V95.742Z" fill="#3E9CDC"/>
<path d="M94.8458 102.286C94.8458 102.937 94.7228 103.508 94.4767 104C94.2306 104.492 93.8995 104.9 93.4835 105.222C92.9913 105.609 92.4493 105.884 91.8575 106.048C91.2716 106.212 90.5245 106.294 89.6163 106.294H84.3781V93.2072H89.0011C89.962 93.2072 90.6886 93.2452 91.1808 93.3214C91.6788 93.3917 92.1447 93.5441 92.5782 93.7784C93.047 94.0304 93.3956 94.3673 93.6241 94.7892C93.8585 95.2111 93.9757 95.6974 93.9757 96.2482C93.9757 96.8868 93.8146 97.4552 93.4923 97.9532C93.1759 98.4513 92.7365 98.8175 92.174 99.0519V99.1222C92.9825 99.2921 93.63 99.6407 94.1163 100.168C94.6027 100.69 94.8458 101.396 94.8458 102.286ZM90.6359 96.9073C90.6359 96.6964 90.5802 96.4796 90.4689 96.257C90.3634 96.0343 90.1964 95.8732 89.9679 95.7736C89.7511 95.6798 89.4933 95.63 89.1945 95.6241C88.9015 95.6124 88.462 95.6066 87.8761 95.6066H87.6476V98.3751H88.0607C88.6232 98.3751 89.0157 98.3693 89.2384 98.3575C89.4669 98.3458 89.7013 98.2843 89.9415 98.173C90.2052 98.0499 90.3868 97.88 90.4865 97.6632C90.5861 97.4464 90.6359 97.1945 90.6359 96.9073ZM91.462 102.225C91.462 101.82 91.38 101.504 91.2159 101.276C91.0519 101.047 90.8058 100.874 90.4777 100.757C90.2784 100.681 90.0031 100.64 89.6515 100.634C89.3058 100.622 88.84 100.616 88.254 100.616H87.6476V103.895H87.8234C88.6788 103.895 89.2706 103.889 89.5988 103.877C89.9269 103.865 90.2609 103.786 90.6007 103.64C90.8995 103.511 91.1163 103.323 91.2511 103.077C91.3917 102.825 91.462 102.541 91.462 102.225Z" fill="#3E9CDC"/>
<circle cx="3" cy="113" r="3" fill="#C4C4C4"/>
<circle cx="29" cy="113" r="3" fill="#C4C4C4"/>
<circle cx="55" cy="113" r="3" fill="#C4C4C4"/>
<circle cx="81" cy="113" r="3" fill="#C4C4C4"/>
<circle cx="107" cy="113" r="3" fill="#C4C4C4"/>
<path d="M16.3839 120.241L12.9018 116.759C12.4888 116.346 11.6629 116 11.0714 116H1.07143C0.479911 116 0 116.48 0 117.071V134.929C0 135.52 0.479911 136 1.07143 136H16.0714C16.6629 136 17.1429 135.52 17.1429 134.929V122.071C17.1429 121.48 16.7969 120.654 16.3839 120.241ZM11.4286 117.518C11.6183 117.585 11.808 117.685 11.8862 117.763L15.3795 121.257C15.4576 121.335 15.558 121.525 15.625 121.714H11.4286V117.518ZM15.7143 134.571H1.42857V117.429H10V122.071C10 122.663 10.4799 123.143 11.0714 123.143H15.7143V134.571ZM4.28571 124.929V125.643C4.28571 125.844 4.44196 126 4.64286 126H12.5C12.7009 126 12.8571 125.844 12.8571 125.643V124.929C12.8571 124.728 12.7009 124.571 12.5 124.571H4.64286C4.44196 124.571 4.28571 124.728 4.28571 124.929ZM12.5 127.429H4.64286C4.44196 127.429 4.28571 127.585 4.28571 127.786V128.5C4.28571 128.701 4.44196 128.857 4.64286 128.857H12.5C12.7009 128.857 12.8571 128.701 12.8571 128.5V127.786C12.8571 127.585 12.7009 127.429 12.5 127.429ZM12.5 130.286H4.64286C4.44196 130.286 4.28571 130.442 4.28571 130.643V131.357C4.28571 131.558 4.44196 131.714 4.64286 131.714H12.5C12.7009 131.714 12.8571 131.558 12.8571 131.357V130.643C12.8571 130.442 12.7009 130.286 12.5 130.286Z" fill="#272733"/>
<defs>
<clipPath id="clip0_17902_33">
<rect width="20" height="20" fill="white" transform="translate(0 90)"/>
</clipPath>
<clipPath id="clip1_17902_33">
<rect width="20" height="20" fill="white" transform="translate(0 90)"/>
</clipPath>
<clipPath id="clip2_17902_33">
<rect width="20" height="20" fill="white" transform="translate(40 90)"/>
</clipPath>
</defs>
</svg>
