<svg width="275" height="136" fill="none" xmlns="http://www.w3.org/2000/svg"><path d="M1.904 27V7.12h4.592v15.848h9.632V27H1.904zm24.731.168c-1.493 0-2.846-.28-4.06-.84a10.275 10.275 0 01-3.108-2.296 10.798 10.798 0 01-1.988-3.248 10.368 10.368 0 01-.7-3.752c0-1.325.243-2.585.728-3.78a10.685 10.685 0 012.072-3.192 9.758 9.758 0 013.164-2.24c1.214-.541 2.54-.812 3.976-.812 1.475 0 2.81.29 4.004.868a9.298 9.298 0 013.108 2.296 10.43 10.43 0 012.016 3.276 10 10 0 01.7 3.668 9.946 9.946 0 01-.728 3.78 10.341 10.341 0 01-2.072 3.22c-.896.933-1.95 1.68-3.164 2.24-1.194.541-2.51.812-3.948.812zm-5.18-10.08c0 .765.112 1.512.336 2.24.224.71.551 1.344.98 1.904a5.04 5.04 0 001.652 1.344c.654.336 1.4.504 2.24.504.878 0 1.643-.168 2.296-.504a4.909 4.909 0 001.624-1.4c.43-.579.747-1.223.952-1.932a7.482 7.482 0 00.336-2.212c0-.765-.112-1.503-.336-2.212a5.826 5.826 0 00-1.008-1.904 4.61 4.61 0 00-1.652-1.344c-.653-.317-1.39-.476-2.212-.476-.877 0-1.642.168-2.296.504a4.984 4.984 0 00-1.624 1.372 6.084 6.084 0 00-.98 1.932 7.816 7.816 0 00-.308 2.184zM39.201 27V7.12h8.96a5.68 5.68 0 012.576.588 6.268 6.268 0 012.072 1.54 6.986 6.986 0 011.344 2.156 6.26 6.26 0 01.504 2.436c0 .821-.13 1.605-.392 2.352a6.744 6.744 0 01-1.12 1.988 6.129 6.129 0 01-1.736 1.428L55.777 27h-5.068L46.9 20.588h-3.108V27H39.2zm4.592-10.416h4.2c.373 0 .7-.112.98-.336.299-.243.541-.57.728-.98.187-.41.28-.887.28-1.428 0-.541-.112-1.008-.336-1.4-.206-.41-.467-.728-.784-.952a1.719 1.719 0 00-1.008-.336h-4.06v5.432zm28.138 6.384V27H57.959V7.12h13.72v4.032H62.55v3.864h7.84v3.724h-7.84v4.228h9.38zM90.4 27V15.156l-4.285 8.624h-2.52l-4.284-8.624V27H74.72V7.12h4.984l5.152 10.388 5.18-10.388h4.956V27H90.4zm8.41 0V7.12h4.591V27H98.81zm8.394 0V7.12h8.484c.952 0 1.82.196 2.604.588a6.277 6.277 0 012.072 1.54 7.01 7.01 0 011.344 2.156c.317.803.476 1.624.476 2.464a6.872 6.872 0 01-.812 3.248 6.696 6.696 0 01-2.212 2.52c-.934.635-2.044.952-3.332.952h-4.032V27h-4.592zm4.592-10.416h3.752c.354 0 .681-.103.98-.308.298-.205.541-.513.728-.924.186-.41.28-.915.28-1.512 0-.616-.112-1.12-.336-1.512-.206-.41-.476-.71-.812-.896a1.96 1.96 0 00-1.008-.28h-3.584v5.432zm24.781-3.64c-.056-.093-.252-.233-.588-.42a12.215 12.215 0 00-2.912-1.232 6.592 6.592 0 00-1.792-.252c-.784 0-1.391.14-1.82.42-.429.261-.644.672-.644 1.232 0 .448.159.803.476 1.064.336.261.812.495 1.428.7.616.187 1.372.41 2.268.672 1.269.336 2.371.747 3.304 1.232.933.467 1.643 1.073 2.128 1.82.504.747.756 1.736.756 2.968 0 1.12-.205 2.072-.616 2.856a5.248 5.248 0 01-1.68 1.876 7.431 7.431 0 01-2.38 1.036 12.39 12.39 0 01-2.772.308c-.971 0-1.969-.093-2.996-.28a18.661 18.661 0 01-2.912-.84 14.008 14.008 0 01-2.576-1.344l2.016-4.004c.075.093.317.27.728.532.411.243.915.504 1.512.784.616.261 1.297.495 2.044.7a8.521 8.521 0 002.268.308c.821 0 1.428-.13 1.82-.392.411-.261.616-.625.616-1.092 0-.504-.215-.896-.644-1.176-.411-.28-.98-.532-1.708-.756-.709-.224-1.531-.476-2.464-.756-1.213-.373-2.221-.793-3.024-1.26-.784-.467-1.372-1.036-1.764-1.708-.373-.672-.56-1.512-.56-2.52 0-1.4.327-2.576.98-3.528a6.191 6.191 0 012.688-2.184c1.12-.504 2.343-.756 3.668-.756.933 0 1.829.112 2.688.336.877.224 1.689.504 2.436.84.765.336 1.447.672 2.044 1.008l-2.016 3.808zm13.839 14.224c-1.587 0-2.94-.261-4.06-.784-1.12-.541-2.035-1.27-2.744-2.184a9.78 9.78 0 01-1.54-3.164 14.526 14.526 0 01-.476-3.752V7.12h4.592v10.164c0 .747.074 1.475.224 2.184.149.69.392 1.307.728 1.848.336.541.765.97 1.288 1.288.541.317 1.204.476 1.988.476.802 0 1.474-.159 2.016-.476a3.79 3.79 0 001.288-1.316c.317-.56.55-1.185.7-1.876.149-.69.224-1.4.224-2.128V7.12h4.592v10.164c0 1.381-.178 2.67-.532 3.864-.336 1.195-.859 2.25-1.568 3.164-.71.896-1.624 1.596-2.744 2.1-1.102.504-2.427.756-3.976.756zM178.475 27V15.156l-4.284 8.624h-2.52l-4.284-8.624V27h-4.592V7.12h4.984l5.152 10.388 5.18-10.388h4.956V27h-4.592zm8.017 0v-4.564h3.668V27h-3.668z" fill="#fff"/><path d="M198.176 15.632V27h-4.592V7.12h3.64l9.212 11.704V7.12h4.592V27h-3.752l-9.1-11.368zm30.626 7.336V27H214.83V7.12h13.72v4.032h-9.128v3.864h7.84v3.724h-7.84v4.228h9.38zm17.938-11.816h-6.048V27H236.1V11.152h-6.076V7.12h16.716v4.032z" fill="#42A9ED"/><path d="M33.929 59.928c0 4.963-4.038 9-9 9s-9-4.037-9-9c0-4.962 4.037-9 9-9 4.962 0 9 4.038 9 9zm10.285 16.715c0-.683-.281-1.346-.743-1.808l-6.89-6.89a14.11 14.11 0 002.49-8.016c0-7.815-6.328-14.143-14.142-14.143-7.815 0-14.143 6.328-14.143 14.142 0 7.815 6.328 14.143 14.143 14.143a14.11 14.11 0 008.015-2.49l6.89 6.87a2.521 2.521 0 001.809.763 2.59 2.59 0 002.571-2.571zm48.572-6.429a2.59 2.59 0 01-2.572 2.572 2.59 2.59 0 01-2.571-2.572 2.59 2.59 0 012.571-2.571 2.59 2.59 0 012.572 2.571zM77.357 54.786a2.59 2.59 0 01-2.571 2.571 2.59 2.59 0 01-2.572-2.571 2.59 2.59 0 012.572-2.572 2.59 2.59 0 012.571 2.572zM97.93 70.214a7.716 7.716 0 00-7.715-7.714 7.716 7.716 0 00-7.714 7.714 7.716 7.716 0 007.714 7.715 7.716 7.716 0 007.715-7.715zM96 48.357c0-.703-.583-1.286-1.286-1.286H91.5c-.402 0-.784.201-1.025.523L69.261 75.879c-.16.221-.261.483-.261.764 0 .703.583 1.286 1.286 1.286H73.5c.402 0 .784-.201 1.025-.523L95.739 49.12c.16-.22.261-.482.261-.763zm-13.5 6.429a7.716 7.716 0 00-7.714-7.715 7.716 7.716 0 00-7.715 7.715 7.716 7.716 0 007.715 7.714 7.716 7.716 0 007.714-7.714zm51.493 9.336v-1.285c0-.362.281-.643.643-.643h14.143c.362 0 .643.281.643.643v1.285a.634.634 0 01-.643.643h-14.143a.634.634 0 01-.643-.643zm.643 3.215h14.143c.362 0 .643.28.643.642v1.286a.635.635 0 01-.643.643h-14.143a.635.635 0 01-.643-.643V67.98c0-.362.281-.643.643-.643zm0 5.143h14.143c.362 0 .643.28.643.642v1.286a.634.634 0 01-.643.643h-14.143a.634.634 0 01-.643-.643v-1.286c0-.361.281-.642.643-.642z" fill="#fff"/><path fill-rule="evenodd" clip-rule="evenodd" d="M126.279 56.065a7.415 7.415 0 117.173-9.3h12.755c1.065 0 2.552.623 3.295 1.366l6.268 6.268c.743.743 1.366 2.23 1.366 3.295v23.143a1.93 1.93 0 01-1.929 1.928h-27a1.929 1.929 0 01-1.928-1.928V56.065zm2.571-.458a7.422 7.422 0 004.813-6.27h10.616v8.357a1.93 1.93 0 001.928 1.928h8.358v20.572H128.85V55.607zm18.824-5.668c-.141-.14-.482-.321-.824-.442v7.554h7.554c-.121-.342-.301-.683-.442-.824l-6.288-6.288zm-20.395-.29h4v-2h-4v-4h-2v4h-4v2h4v4h2v-4z" fill="#fff"/><path d="M209.429 73.857a.662.662 0 01-.643.643h-29.572a.662.662 0 01-.643-.643V58.43c.422.482.884.924 1.387 1.325 2.872 2.21 5.765 4.46 8.558 6.79 1.506 1.266 3.375 2.813 5.464 2.813h.04c2.089 0 3.958-1.547 5.464-2.812 2.793-2.33 5.686-4.58 8.558-6.79.503-.402.965-.844 1.387-1.326v15.428zm0-21.114c0 1.708-1.648 3.938-2.954 4.962-2.692 2.11-5.383 4.24-8.055 6.369-1.065.864-2.994 2.712-4.4 2.712h-.04c-1.406 0-3.335-1.848-4.4-2.712-2.672-2.13-5.363-4.26-8.055-6.369-1.808-1.426-2.954-3.415-2.954-5.705 0-.342.302-.643.643-.643h29.572c.763 0 .643.884.643 1.386zM212 52a3.223 3.223 0 00-3.214-3.214h-29.572A3.223 3.223 0 00176 52v21.857a3.223 3.223 0 003.214 3.215h29.572A3.223 3.223 0 00212 73.856V52zm31.929 14.786v-1.929h2.571v-5.785h-.04c-.322.502-.623.723-1.105 1.145l-1.547-1.608 2.973-2.752h2.29v9h2.572v1.929h-7.714zm10.285-5.143c0-3.656-2.21-8.357-6.428-8.357-4.219 0-6.429 4.7-6.429 8.357 0 3.656 2.21 8.357 6.429 8.357 4.218 0 6.428-4.7 6.428-8.357zm10.286 5.143a5.153 5.153 0 00-5.143 5.143h-23.143a5.153 5.153 0 00-5.143-5.143V56.5a5.153 5.153 0 005.143-5.143h23.143A5.153 5.153 0 00264.5 56.5v10.286zm2.571-16.715c0-.703-.582-1.285-1.285-1.285h-36c-.703 0-1.286.582-1.286 1.285v23.143c0 .704.583 1.286 1.286 1.286h36c.703 0 1.285-.582 1.285-1.286V50.072z" fill="#fff"/><g clip-path="url(#clip0_17902_33)"><g clip-path="url(#clip1_17902_33)"><path d="M16.412 103.456c.06.388-.067.552-.195.552s-.314-.158-.521-.471c-.207-.312-.278-.66-.178-.838a.286.286 0 01.17-.127.297.297 0 01.213.022c.341.124.475.629.51.862zm-1.888.85c.41.335.535.733.318 1.013a.674.674 0 01-.55.238c-.228 0-.45-.077-.626-.218-.37-.314-.48-.825-.237-1.114a.534.534 0 01.434-.176c.245.008.479.099.661.257zm-.684 3.231c1.762 0 3.674.584 5.791 2.398.212.181.493-.044.309-.27-2.08-2.539-4.008-3.024-5.922-3.432-2.346-.502-3.554-1.78-4.4-3.182-.166-.279-.242-.23-.257.13a7.65 7.65 0 00.124 1.589H9.2a6.226 6.226 0 01-3.377-.991 5.923 5.923 0 01-2.238-2.639 5.7 5.7 0 01-.346-3.397 5.823 5.823 0 011.663-3.01 6.144 6.144 0 013.112-1.61 6.27 6.27 0 013.512.335 6.04 6.04 0 012.728 2.166 5.744 5.744 0 01.986 3.95 9.38 9.38 0 00-1.93-.035c-.232.02-.198.13-.024.154 2.003.35 3.39 1.551 3.705 3.741a.055.055 0 00.014.03.054.054 0 00.029.016.049.049 0 00.034-.003.054.054 0 00.025-.021 8.66 8.66 0 001.24-5.608 8.78 8.78 0 00-2.554-5.175 9.31 9.31 0 00-5.29-2.592 9.46 9.46 0 00-5.824 1.07 9 9 0 00-3.94 4.286 8.625 8.625 0 00-.417 5.721 8.885 8.885 0 003.28 4.778 9.397 9.397 0 005.612 1.849c1.343.004 2.68-.25 4.641-.25v.002z" fill="#3E9CDC"/></g></g><path fill-rule="evenodd" clip-rule="evenodd" d="M23.28 99.93c0-.983.083-1.608 2.138-3.13 1.701-1.259 7.155-5.563 7.155-5.563v7.185h4.147v10.341H24.575a1.295 1.295 0 01-1.295-1.285v-7.547z" fill="#3E9CDC"/><path fill-rule="evenodd" clip-rule="evenodd" d="M32.573 98.422v4.163l-7.62 5.149 9.634-3.109v-6.203h-2.014z" fill="#000" fill-opacity=".2"/><path fill-rule="evenodd" clip-rule="evenodd" d="M29.09 98.207c.446-.527 1.097-.713 1.454-.415.358.297.286.965-.16 1.492-.445.526-1.096.712-1.453.415-.358-.298-.286-.966.16-1.492z" fill="#231F20"/><g clip-path="url(#clip2_17902_33)"><path d="M48.84 90a9.12 9.12 0 013.957.901c.189.085.379.187.567.29l-.826.73-1.237-1.275-2.133 1.87-1.256-1.343-3.922 3.486 2.511 2.737-.98.85 2.477 2.738-.98.85 3.543 3.893 2.097-1.904 1.825 2.041a10.11 10.11 0 01-1.187.782 9.07 9.07 0 01-4.438 1.156c-4.971 0-9.012-3.995-9.012-8.909C39.828 94.013 43.87 90 48.84 90zm-1.65 8.349l2.15-1.905 1.926 2.126-2.15 1.904-1.927-2.125zm1.53 3.672l2.133-1.921 1.944 2.125-2.15 1.905-1.926-2.109zm-3.06-7.294l2.149-1.904 1.926 2.125-2.15 1.904-1.926-2.125zm3.937-1.02l1.6-1.429 1.445 1.582-1.6 1.445-1.445-1.598zm2.856 6.546l1.6-1.428 1.444 1.597-1.6 1.43-1.444-1.599zm1.41 3.214l1.6-1.429 1.444 1.581-1.6 1.445-1.444-1.597zm.654-7.346l1.066-.952.963 1.054-1.066.952-.963-1.054zm-1.376-3.145l1.066-.97.964 1.072-1.067.952-.963-1.055zm2.735 6.29l1.066-.951.98 1.054-1.083.952-.963-1.054zm-4.8-2.363l1.6-1.428 1.445 1.581-1.599 1.429-1.445-1.582z" fill="#3E9CDC"/></g><path d="M76.429 104.849a.276.276 0 01-.268.268H63.839a.276.276 0 01-.268-.268v-6.428c.176.2.369.385.578.552a114.83 114.83 0 013.566 2.829c.628.528 1.406 1.172 2.277 1.172h.016c.87 0 1.65-.644 2.277-1.172a114.83 114.83 0 013.566-2.829c.21-.167.402-.352.578-.552v6.428zm0-8.797c0 .711-.687 1.64-1.23 2.067a509.773 509.773 0 00-3.358 2.654c-.443.36-1.247 1.13-1.833 1.13h-.016c-.586 0-1.39-.77-1.834-1.13a509.773 509.773 0 00-3.356-2.654c-.754-.594-1.23-1.423-1.23-2.377 0-.142.125-.268.267-.268h12.322c.318 0 .268.368.268.578zm1.071-.31c0-.737-.603-1.34-1.34-1.34H63.84c-.737 0-1.34.603-1.34 1.34v9.107c0 .737.603 1.339 1.34 1.339h12.32c.737 0 1.34-.602 1.34-1.339v-9.107zm17.346 6.544c0 .651-.123 1.222-.37 1.714-.245.492-.576.9-.992 1.222a4.59 4.59 0 01-1.626.826c-.586.164-1.334.246-2.242.246h-5.238V93.207h4.623c.961 0 1.688.038 2.18.114.498.07.964.223 1.397.457.469.252.818.59 1.046 1.011.235.422.352.908.352 1.46 0 .638-.161 1.206-.484 1.704a2.793 2.793 0 01-1.318 1.099v.07c.808.17 1.456.519 1.942 1.046.487.522.73 1.228.73 2.118zm-4.21-5.379c0-.21-.056-.427-.167-.65a.961.961 0 00-.501-.483 2.042 2.042 0 00-.773-.15 36.152 36.152 0 00-1.319-.017h-.228v2.768h.413c.562 0 .955-.006 1.177-.017a1.92 1.92 0 00.704-.185c.263-.123.445-.293.545-.51.1-.217.149-.468.149-.756zm.826 5.318c0-.405-.082-.721-.246-.949-.164-.229-.41-.402-.738-.519-.2-.076-.475-.117-.826-.123a42.424 42.424 0 00-1.398-.018h-.606v3.279h.175c.856 0 1.448-.006 1.776-.018a2.788 2.788 0 001.002-.237c.299-.129.515-.317.65-.563.14-.252.211-.536.211-.852z" fill="#3E9CDC"/><circle cx="3" cy="113" r="3" fill="#C4C4C4"/><circle cx="29" cy="113" r="3" fill="#C4C4C4"/><circle cx="55" cy="113" r="3" fill="#C4C4C4"/><circle cx="81" cy="113" r="3" fill="#C4C4C4"/><circle cx="107" cy="113" r="3" fill="#C4C4C4"/><path d="M16.384 120.241l-3.482-3.482c-.413-.413-1.24-.759-1.83-.759h-10C.48 116 0 116.48 0 117.071v17.858C0 135.52.48 136 1.071 136h15c.592 0 1.072-.48 1.072-1.071v-12.858c0-.591-.346-1.417-.76-1.83zm-4.955-2.723c.19.067.379.167.457.245l3.494 3.494c.078.078.178.268.245.457h-4.196v-4.196zm4.285 17.053H1.43v-17.142H10v4.642c0 .592.48 1.072 1.071 1.072h4.643v11.428zm-11.428-9.642v.714c0 .201.156.357.357.357H12.5c.2 0 .357-.156.357-.357v-.714a.353.353 0 00-.357-.358H4.643a.353.353 0 00-.357.358zm8.214 2.5H4.643a.352.352 0 00-.357.357v.714c0 .201.156.357.357.357H12.5c.2 0 .357-.156.357-.357v-.714a.352.352 0 00-.357-.357zm0 2.857H4.643a.352.352 0 00-.357.357v.714c0 .201.156.357.357.357H12.5c.2 0 .357-.156.357-.357v-.714a.352.352 0 00-.357-.357z" fill="#272733"/><defs><clipPath id="clip0_17902_33"><path fill="#fff" transform="translate(0 90)" d="M0 0h20v20H0z"/></clipPath><clipPath id="clip1_17902_33"><path fill="#fff" transform="translate(0 90)" d="M0 0h20v20H0z"/></clipPath><clipPath id="clip2_17902_33"><path fill="#fff" transform="translate(40 90)" d="M0 0h20v20H0z"/></clipPath></defs></svg>